# xmcd
#
# Track frame offsets: 
#        150
#        27615
#        65702
#        83485
#        115501
#        120837
#        146381
#        164091
#        181927
#        201732
#        237726
#
# Disc length: 3325 seconds
#
# Revision: 0
# Processed by: cddbd v1.5.2PL0 Copyright (c) Steve Scherf et al.
# Submitted via: ExactAudioCopy v1.3
#
DISCID=9c0cfb0b
DTITLE=James Parsons - Ystym Colwyn Hall - A Trio of Organs
DYEAR=2006
DGENRE=Classical
TTITLE0=Praeambulum in E
TTITLE1=Partita Ach wie nichtig, ach wie fluchtig: Oh how futile, (Oh 
TTITLE1=how fleeting is the life of Man)
TTITLE2=O Ewigkeit du Donnerwort - (Eternity thou word of thunder)
TTITLE3=Prelude and 'Fiddle' Fugue in D minor. BWV 539
TTITLE4=Erstanden ist der heil'ge Christ: (The blessed Christ is ris'n
TTITLE4=today). BWV 628
TTITLE5=Onder een linder groen (Under the linden green)
TTITLE6=Voluntary in E minor, op. 7 no. 7
TTITLE7=Voluntary in G, op. 6 n 7
TTITLE8=Andante with varioations in D
TTITLE9=Praeludium in E minor. BuxWV 142
TTITLE10=Liebster Jesus, wir sind hier. BWV 731 (Blessed Jesu, at Thy 
TTITLE10=word we are gather'd all to hear Thee)
EXTD=
EXTT0=
EXTT1=
EXTT2=
EXTT3=
EXTT4=
EXTT5=
EXTT6=
EXTT7=
EXTT8=
EXTT9=
EXTT10=
PLAYORDER=
